<svg xmlns="http://www.w3.org/2000/svg" xmlns:xlink="http://www.w3.org/1999/xlink" width="1920" zoomAndPan="magnify" viewBox="0 0 1440 449.999984" height="600" preserveAspectRatio="xMidYMid meet" version="1.0"><defs><filter x="0%" y="0%" width="100%" height="100%" id="81fa4d6092"><feColorMatrix values="0 0 0 0 1 0 0 0 0 1 0 0 0 0 1 0 0 0 1 0" color-interpolation-filters="sRGB"/></filter><mask id="4b8d910358"><g filter="url(#81fa4d6092)"><rect x="-144" width="1728" fill="#000000" y="-44.999998" height="539.99998" fill-opacity="0.0784"/></g></mask><clipPath id="77db1be3de"><path d="M 480 367 L 510.480469 367 L 510.480469 397 L 480 397 Z M 480 367 " clip-rule="nonzero"/></clipPath><clipPath id="dcbbf9bcf7"><rect x="0" width="511" y="0" height="450"/></clipPath><mask id="a5eb799133"><g filter="url(#81fa4d6092)"><rect x="-144" width="1728" fill="#000000" y="-44.999998" height="539.99998" fill-opacity="0.0784"/></g></mask><clipPath id="0a1bd22992"><path d="M 0.199219 252 L 30 252 L 30 286 L 0.199219 286 Z M 0.199219 252 " clip-rule="nonzero"/></clipPath><clipPath id="ae9141b021"><path d="M 479 367 L 509.480469 367 L 509.480469 397 L 479 397 Z M 479 367 " clip-rule="nonzero"/></clipPath><clipPath id="c9f9f2a5cd"><rect x="0" width="510" y="0" height="450"/></clipPath><mask id="d68cc4ef23"><g filter="url(#81fa4d6092)"><rect x="-144" width="1728" fill="#000000" y="-44.999998" height="539.99998" fill-opacity="0.0784"/></g></mask><clipPath id="93a72f6087"><path d="M 479 367 L 509.519531 367 L 509.519531 397 L 479 397 Z M 479 367 " clip-rule="nonzero"/></clipPath><clipPath id="29e71d42e0"><rect x="0" width="510" y="0" height="450"/></clipPath></defs><rect x="-144" width="1728" fill="#ffffff" y="-44.999998" height="539.99998" fill-opacity="1"/><rect x="-144" width="1728" fill="#ffffff" y="-44.999998" height="539.99998" fill-opacity="1"/><rect x="-144" width="1728" fill="#ebddf8" y="-44.999998" height="539.99998" fill-opacity="1"/><g mask="url(#4b8d910358)"><g transform="matrix(1, 0, 0, 1, 0, 0)"><g clip-path="url(#dcbbf9bcf7)"><path fill="#662d91" d="M 15.738281 252.609375 C 17.125 252.496094 18.53125 252.382812 19.902344 252.628906 C 24.058594 253.375 26.964844 257.222656 28.546875 261.140625 C 30.390625 265.695312 31.027344 270.734375 30.375 275.605469 C 30.300781 276.171875 30.199219 276.757812 29.855469 277.214844 C 29.640625 277.507812 29.339844 277.726562 29.042969 277.9375 C 26.167969 280.007812 23.292969 282.082031 20.417969 284.152344 C 19.53125 284.789062 18.542969 285.457031 17.457031 285.375 C 12.324219 284.992188 7.171875 282.8125 3.996094 278.765625 C 0.820312 274.71875 0.015625 268.683594 2.765625 264.332031 C 4.214844 262.039062 3.121094 258.855469 4.347656 256.433594 C 5.726562 253.71875 9.28125 253.136719 12.320312 252.886719 C 13.457031 252.796875 14.597656 252.703125 15.738281 252.609375 Z M 15.738281 252.609375 " fill-opacity="1" fill-rule="nonzero"/><path fill="#662d91" d="M 162.433594 274.359375 C 165.695312 275.472656 169.78125 274.921875 172.101562 277.46875 C 174.636719 280.261719 173.234375 284.667969 173.742188 288.40625 C 174.078125 290.902344 172.960938 293.445312 171.222656 295.265625 C 169.480469 297.085938 167.171875 298.269531 164.8125 299.152344 C 159.242188 301.234375 153.113281 301.796875 147.257812 300.765625 C 146.429688 300.617188 145.515625 300.378906 145.082031 299.660156 C 142.988281 296.199219 140.894531 292.738281 138.800781 289.277344 C 138.3125 288.472656 137.808594 287.574219 137.976562 286.652344 C 138.832031 281.964844 141.269531 277.480469 145.109375 274.65625 C 148.949219 271.835938 154.226562 270.867188 158.644531 272.65625 C 159.929688 273.175781 161.125 273.910156 162.433594 274.359375 Z M 162.433594 274.359375 " fill-opacity="1" fill-rule="nonzero"/><path fill="#662d91" d="M 437.910156 197.25 C 437.359375 195.425781 438.835938 193.632812 439.085938 191.742188 C 439.277344 190.289062 439.234375 188.148438 440.699219 188.097656 C 444.597656 187.964844 447.3125 183.933594 451.121094 183.089844 C 454.355469 182.371094 457.585938 184.089844 460.4375 185.78125 C 463.980469 187.882812 466.542969 191.570312 467.28125 195.621094 C 468.019531 199.675781 466.917969 204.027344 464.339844 207.242188 C 462.28125 209.8125 463.246094 214.191406 460.636719 216.195312 C 459.546875 217.027344 458.097656 217.195312 456.726562 217.257812 C 453.941406 217.390625 451.140625 217.21875 448.394531 216.75 C 447.492188 216.597656 446.59375 216.410156 445.742188 216.082031 C 440.78125 214.183594 438.742188 208.210938 438.496094 202.90625 C 438.40625 201.007812 438.460938 199.070312 437.910156 197.25 Z M 437.910156 197.25 " fill-opacity="1" fill-rule="nonzero"/><path fill="#662d91" d="M 209.925781 231.5625 C 207.417969 230.21875 204.824219 228.800781 203.117188 226.523438 C 201.558594 224.441406 200.886719 221.832031 200.4375 219.269531 C 200.109375 217.402344 199.886719 215.453125 200.402344 213.628906 C 201.5 209.753906 205.671875 207.269531 206.519531 203.332031 C 206.886719 201.617188 208.507812 200.394531 210.207031 199.96875 C 211.910156 199.542969 213.699219 199.757812 215.4375 199.976562 C 218.375 200.347656 221.421875 200.753906 223.917969 202.34375 C 228.4375 205.222656 229.933594 211.207031 229.648438 216.554688 C 229.464844 219.949219 228.722656 223.308594 227.457031 226.460938 C 227.234375 227.027344 226.976562 227.605469 226.515625 228.003906 C 226.152344 228.316406 225.691406 228.492188 225.238281 228.660156 C 222.277344 229.773438 219.316406 230.886719 216.351562 232 C 215.304688 232.394531 214.214844 232.792969 213.097656 232.722656 C 211.964844 232.648438 210.925781 232.101562 209.925781 231.5625 Z M 209.925781 231.5625 " fill-opacity="1" fill-rule="nonzero"/><path fill="#662d91" d="M 37.109375 152.414062 C 35.6875 151.703125 34.625 150.371094 33.148438 149.769531 C 31.773438 149.210938 30.175781 149.351562 28.839844 148.707031 C 26.234375 147.457031 25.777344 144.007812 25.671875 141.117188 C 25.515625 137.046875 25.433594 132.695312 27.605469 129.253906 C 29.59375 126.105469 33.214844 124.261719 36.886719 123.6875 C 40.5625 123.109375 44.320312 123.660156 47.960938 124.425781 C 48.882812 124.617188 50.003906 125.042969 50.070312 125.984375 C 50.34375 129.734375 54.316406 132.195312 55.3125 135.816406 C 56.179688 138.964844 54.640625 142.21875 53.148438 145.121094 C 52.554688 146.265625 51.953125 147.429688 51.074219 148.375 C 49.671875 149.886719 47.703125 150.710938 45.796875 151.492188 C 43.011719 152.628906 39.800781 153.761719 37.109375 152.414062 Z M 37.109375 152.414062 " fill-opacity="1" fill-rule="nonzero"/><path fill="#662d91" d="M 185.300781 146.246094 C 183.851562 146.710938 182.335938 147.179688 180.839844 146.921875 C 177.871094 146.40625 175.804688 143.1875 172.796875 143.046875 C 170.664062 142.949219 168.824219 141.289062 168.019531 139.3125 C 167.214844 137.335938 167.292969 135.101562 167.6875 133.003906 C 167.828125 132.257812 168.003906 131.484375 167.8125 130.75 C 166.527344 125.875 170.132812 120.734375 174.765625 118.75 C 179.402344 116.769531 184.703125 117.25 189.644531 118.234375 C 190.652344 118.433594 191.882812 118.910156 191.921875 119.9375 C 192.050781 123.710938 196.09375 126.207031 197.09375 129.84375 C 197.984375 133.089844 196.292969 136.425781 194.660156 139.363281 C 194.082031 140.398438 193.5 141.445312 192.707031 142.328125 C 190.820312 144.4375 187.992188 145.386719 185.300781 146.246094 Z M 185.300781 146.246094 " fill-opacity="1" fill-rule="nonzero"/><path fill="#662d91" d="M 305.445312 373.980469 C 303.617188 373.984375 302.039062 372.546875 301.308594 370.871094 C 300.574219 369.195312 300.519531 367.316406 300.472656 365.488281 C 300.375 361.582031 300.347656 357.414062 302.445312 354.121094 C 304.230469 351.308594 307.371094 349.558594 310.625 348.855469 C 313.878906 348.152344 317.261719 348.402344 320.554688 348.882812 C 321.808594 349.066406 323.132812 349.324219 324.046875 350.195312 C 324.546875 350.671875 324.875 351.289062 325.199219 351.898438 C 326.832031 354.96875 328.460938 358.039062 330.09375 361.109375 C 330.433594 361.746094 330.78125 362.457031 330.621094 363.164062 C 329.546875 367.808594 327.257812 372.34375 323.421875 375.175781 C 319.589844 378.007812 314.042969 378.777344 310.007812 376.242188 C 308.546875 375.324219 307.171875 373.976562 305.445312 373.980469 Z M 305.445312 373.980469 " fill-opacity="1" fill-rule="nonzero"/><path fill="#662d91" d="M 431.464844 82.253906 C 429.363281 81.222656 426.691406 81.195312 425.089844 79.484375 C 424.183594 78.519531 423.804688 77.171875 423.609375 75.863281 C 423.203125 73.15625 423.449219 70.394531 423.699219 67.667969 C 423.824219 66.289062 423.949219 64.890625 424.378906 63.574219 C 425.703125 59.503906 429.765625 56.789062 433.960938 55.960938 C 438.160156 55.136719 442.5 55.894531 446.664062 56.871094 C 447.027344 56.957031 447.46875 57.125 447.507812 57.496094 C 448.066406 62.597656 454.304688 66.320312 453.34375 71.359375 C 452.058594 78.078125 446.527344 83.949219 439.773438 85.035156 C 438.425781 85.25 437.011719 85.28125 435.726562 84.808594 C 434.167969 84.234375 432.957031 82.984375 431.464844 82.253906 Z M 431.464844 82.253906 " fill-opacity="1" fill-rule="nonzero"/><path fill="#662d91" d="M 232.199219 114.820312 C 230.277344 113.816406 227.871094 113.796875 226.195312 112.414062 C 224.21875 110.78125 223.980469 107.890625 223.890625 105.328125 C 223.738281 100.796875 223.761719 95.765625 226.808594 92.414062 C 228.511719 90.539062 230.945312 89.484375 233.398438 88.855469 C 237.640625 87.773438 242.167969 87.832031 246.378906 89.027344 C 247.222656 89.265625 248.1875 89.699219 248.324219 90.566406 C 249.101562 95.460938 254.695312 99.207031 253.757812 104.074219 C 252.441406 110.925781 246.40625 116.59375 239.488281 117.480469 C 238.382812 117.625 237.234375 117.648438 236.179688 117.28125 C 234.703125 116.765625 233.589844 115.542969 232.199219 114.820312 Z M 232.199219 114.820312 " fill-opacity="1" fill-rule="nonzero"/><path fill="#662d91" d="M 229.972656 322.582031 C 228.382812 321.578125 226.597656 320.894531 224.746094 320.570312 C 223.289062 320.320312 222.183594 319.023438 221.71875 317.617188 C 221.253906 316.210938 221.308594 314.695312 221.367188 313.210938 C 221.433594 311.546875 221.5 309.882812 221.566406 308.21875 C 221.617188 306.941406 221.667969 305.652344 221.949219 304.40625 C 222.496094 301.949219 223.941406 299.707031 225.949219 298.195312 C 228.761719 296.074219 232.441406 295.472656 235.964844 295.464844 C 238.449219 295.460938 240.933594 295.722656 243.363281 296.238281 C 243.929688 296.359375 244.523438 296.507812 244.953125 296.894531 C 245.902344 297.753906 245.648438 299.289062 246.078125 300.492188 C 246.511719 301.714844 247.625 302.539062 248.492188 303.5 C 251.738281 307.089844 251.476562 312.882812 249.015625 317.046875 C 246.585938 321.167969 242.222656 324.09375 237.484375 324.773438 C 235.984375 324.988281 234.40625 324.980469 232.996094 324.410156 C 231.902344 323.964844 230.972656 323.210938 229.972656 322.582031 Z M 229.972656 322.582031 " fill-opacity="1" fill-rule="nonzero"/><path fill="#662d91" d="M 258.480469 35.003906 C 258.609375 34.386719 258.789062 33.777344 258.832031 33.148438 C 258.882812 32.371094 258.722656 31.597656 258.671875 30.820312 C 258.433594 27.253906 260.613281 23.808594 263.613281 21.863281 C 266.613281 19.917969 270.304688 19.296875 273.878906 19.367188 C 276.332031 19.417969 278.78125 19.777344 281.148438 20.429688 C 281.511719 20.53125 281.886719 20.644531 282.160156 20.902344 C 282.574219 21.289062 282.667969 21.894531 282.800781 22.445312 C 283.867188 26.859375 288.800781 30.175781 288.210938 34.679688 C 287.25 41.96875 280.871094 48.183594 273.558594 48.949219 C 272.535156 49.054688 271.464844 49.0625 270.515625 48.667969 C 268.554688 47.863281 267.273438 45.484375 265.15625 45.460938 C 262.792969 45.433594 260.574219 43.933594 259.390625 41.886719 C 258.207031 39.835938 257.988281 37.320312 258.480469 35.003906 Z M 258.480469 35.003906 " fill-opacity="1" fill-rule="nonzero"/><path fill="#662d91" d="M 194.335938 25.433594 C 192.65625 25.046875 191.398438 23.558594 190.808594 21.9375 C 190.21875 20.3125 190.1875 18.546875 190.160156 16.820312 C 190.097656 13.074219 190.101562 9.089844 192.082031 5.90625 C 194.667969 1.765625 199.96875 0.128906 204.851562 0.09375 C 207.703125 0.0742188 210.554688 0.488281 213.285156 1.316406 C 213.632812 1.421875 213.996094 1.546875 214.238281 1.820312 C 214.542969 2.164062 214.578125 2.664062 214.652344 3.121094 C 215.199219 6.507812 218.476562 8.8125 219.609375 12.054688 C 220.714844 15.226562 219.574219 18.773438 217.804688 21.628906 C 215.90625 24.679688 213.199219 27.324219 209.851562 28.636719 C 206.507812 29.949219 202.492188 29.78125 199.539062 27.734375 C 197.972656 26.644531 196.195312 25.859375 194.335938 25.433594 Z M 194.335938 25.433594 " fill-opacity="1" fill-rule="nonzero"/><path fill="#662d91" d="M 344.601562 165.214844 C 342.359375 165.097656 340.503906 163.246094 339.6875 161.152344 C 338.871094 159.058594 338.878906 156.746094 338.902344 154.5 C 338.925781 151.929688 338.964844 149.285156 339.941406 146.90625 C 341.511719 143.0625 345.378906 140.496094 349.4375 139.613281 C 353.496094 138.730469 357.730469 139.316406 361.765625 140.308594 C 362.257812 140.429688 362.84375 140.664062 362.898438 141.167969 C 363.4375 146.101562 369.546875 149.542969 368.878906 154.464844 C 367.914062 161.523438 361.972656 167.605469 354.941406 168.734375 C 353.964844 168.894531 352.953125 168.960938 351.988281 168.738281 C 349.304688 168.117188 347.355469 165.359375 344.601562 165.214844 Z M 344.601562 165.214844 " fill-opacity="1" fill-rule="nonzero"/><path fill="#662d91" d="M 265.660156 198.058594 C 264.378906 197.691406 263.300781 196.847656 262.167969 196.148438 C 260.613281 195.191406 258.914062 194.476562 257.140625 194.042969 C 255.148438 193.554688 253.707031 191.722656 253.101562 189.757812 C 252.5 187.792969 252.585938 185.695312 252.679688 183.644531 C 252.824219 180.410156 253.023438 177.011719 254.757812 174.28125 C 256.675781 171.261719 260.191406 169.585938 263.703125 168.90625 C 267.386719 168.195312 271.25 168.421875 274.824219 169.558594 C 275.269531 169.699219 275.722656 169.863281 276.058594 170.1875 C 276.273438 170.398438 276.429688 170.664062 276.578125 170.925781 C 278.207031 173.765625 279.835938 176.605469 281.464844 179.445312 C 282.339844 180.96875 283.242188 182.742188 282.667969 184.402344 C 281.566406 187.585938 280.402344 190.871094 278.085938 193.316406 C 276.1875 195.316406 273.644531 196.59375 271.039062 197.503906 C 269.308594 198.105469 267.421875 198.566406 265.660156 198.058594 Z M 265.660156 198.058594 " fill-opacity="1" fill-rule="nonzero"/><path fill="#662d91" d="M 336.472656 273.394531 C 334.8125 272.738281 333.539062 271.339844 331.898438 270.636719 C 330.246094 269.929688 328.269531 269.949219 326.835938 268.863281 C 325.40625 267.777344 324.894531 265.867188 324.691406 264.082031 C 324.378906 261.304688 324.582031 258.496094 324.820312 255.710938 C 324.910156 254.636719 325.007812 253.558594 325.300781 252.519531 C 326.441406 248.425781 330.460938 245.648438 334.617188 244.757812 C 338.769531 243.867188 343.085938 244.523438 347.273438 245.234375 C 347.878906 245.335938 348.628906 245.597656 348.65625 246.207031 C 348.851562 250.707031 354.050781 253.710938 354.441406 258.195312 C 354.613281 260.171875 353.804688 262.082031 353.015625 263.902344 C 352.25 265.65625 351.464844 267.453125 350.164062 268.859375 C 348.6875 270.457031 346.667969 271.429688 344.675781 272.296875 C 342.074219 273.425781 339.105469 274.445312 336.472656 273.394531 Z M 336.472656 273.394531 " fill-opacity="1" fill-rule="nonzero"/><path fill="#662d91" d="M 152.144531 356.378906 C 152.1875 354.273438 152.226562 352.167969 152.265625 350.058594 C 152.28125 349.191406 152.296875 348.320312 152.441406 347.464844 C 152.980469 344.238281 155.339844 341.503906 158.222656 339.957031 C 161.101562 338.410156 164.453125 337.929688 167.722656 337.980469 C 169.679688 338.007812 171.632812 338.214844 173.550781 338.597656 C 174.847656 338.859375 176.363281 339.441406 176.585938 340.742188 C 177.386719 345.460938 182.941406 349.03125 181.9375 353.707031 C 180.425781 360.753906 174.40625 367.296875 167.203125 367.117188 C 163.75 367.027344 160.53125 365.476562 157.433594 363.957031 C 155.464844 362.992188 153.332031 361.855469 152.53125 359.816406 C 152.109375 358.734375 152.125 357.539062 152.144531 356.378906 Z M 152.144531 356.378906 " fill-opacity="1" fill-rule="nonzero"/><path fill="#662d91" d="M 377.265625 320.234375 C 379.835938 318.6875 382.796875 317.800781 385.796875 317.691406 C 388.890625 317.574219 391.953125 318.265625 394.949219 319.035156 C 395.273438 319.117188 395.617188 319.214844 395.839844 319.464844 C 396.078125 319.734375 396.121094 320.117188 396.179688 320.46875 C 396.980469 325.246094 402.597656 328.8125 401.691406 333.570312 C 400.496094 339.847656 395.515625 345.242188 389.355469 346.9375 C 387.335938 347.492188 385.089844 347.652344 383.214844 346.71875 C 381.988281 346.105469 381.015625 345.074219 379.8125 344.414062 C 377.40625 343.097656 373.976562 343.160156 372.640625 340.761719 C 372.097656 339.792969 372.058594 338.632812 372.035156 337.523438 C 371.992188 335.535156 371.949219 333.542969 371.902344 331.554688 C 371.855469 329.382812 371.820312 327.136719 372.660156 325.132812 C 373.542969 323.03125 375.3125 321.410156 377.265625 320.234375 Z M 377.265625 320.234375 " fill-opacity="1" fill-rule="nonzero"/><path fill="#662d91" d="M 49.734375 387.230469 C 48.257812 387.164062 47.027344 385.957031 46.476562 384.582031 C 45.921875 383.210938 45.910156 381.691406 45.90625 380.210938 C 45.902344 378.804688 45.898438 377.398438 45.894531 375.992188 C 45.886719 373.394531 45.910156 370.671875 47.132812 368.382812 C 48.257812 366.28125 50.277344 364.792969 52.425781 363.761719 C 57.492188 361.332031 63.601562 361.1875 68.773438 363.375 C 69.054688 363.492188 69.339844 363.621094 69.566406 363.828125 C 70.070312 364.28125 70.195312 365.007812 70.378906 365.660156 C 71.019531 367.90625 72.640625 369.707031 73.941406 371.644531 C 75.238281 373.582031 76.261719 376 75.496094 378.207031 C 74.441406 381.261719 73.324219 384.414062 71.097656 386.757812 C 69.269531 388.683594 66.816406 389.914062 64.304688 390.78125 C 62.597656 391.371094 60.769531 391.8125 59.003906 391.460938 C 55.636719 390.789062 53.160156 387.394531 49.734375 387.230469 Z M 49.734375 387.230469 " fill-opacity="1" fill-rule="nonzero"/><g clip-path="url(#77db1be3de)"><path fill="#662d91" d="M 510.070312 383.277344 C 509.011719 386.472656 507.878906 389.789062 505.507812 392.179688 C 503.753906 393.941406 501.449219 395.058594 499.09375 395.863281 C 497.484375 396.414062 495.78125 396.835938 494.09375 396.617188 C 492.644531 396.429688 491.304688 395.785156 489.992188 395.148438 C 487.9375 394.15625 485.882812 393.160156 483.828125 392.164062 C 483.09375 391.808594 482.339844 391.4375 481.800781 390.824219 C 481.289062 390.238281 481.023438 389.480469 480.832031 388.726562 C 480.230469 386.367188 480.269531 383.898438 480.3125 381.460938 C 480.347656 379.351562 480.394531 377.195312 481.117188 375.214844 C 482.484375 371.457031 486.148438 368.902344 490.007812 367.855469 C 491.382812 367.480469 492.796875 367.269531 494.21875 367.183594 C 497.394531 366.996094 500.605469 367.460938 503.601562 368.535156 C 504.535156 368.871094 504.753906 370.058594 505.023438 371.019531 C 505.644531 373.214844 507.226562 374.976562 508.5 376.867188 C 509.773438 378.757812 510.789062 381.113281 510.070312 383.277344 Z M 510.070312 383.277344 " fill-opacity="1" fill-rule="nonzero"/></g><path fill="#662d91" d="M 329.464844 64.972656 C 328.238281 63.601562 328.179688 61.578125 328.191406 59.738281 C 328.199219 57.59375 328.207031 55.445312 328.21875 53.296875 C 328.222656 52.566406 328.222656 51.835938 328.316406 51.113281 C 328.855469 46.914062 332.425781 43.566406 336.433594 42.210938 C 340.445312 40.855469 344.824219 41.160156 349 41.847656 C 350.628906 42.117188 352.640625 42.875 352.675781 44.527344 C 352.734375 47.539062 355.921875 49.445312 357.222656 52.160156 C 358.195312 54.1875 358.054688 56.589844 357.445312 58.753906 C 355.644531 65.144531 349.667969 70.132812 343.058594 70.761719 C 342.28125 70.835938 341.484375 70.855469 340.726562 70.660156 C 338.871094 70.183594 337.558594 68.550781 335.847656 67.691406 C 333.753906 66.644531 331.027344 66.714844 329.464844 64.972656 Z M 329.464844 64.972656 " fill-opacity="1" fill-rule="nonzero"/><path fill="#662d91" d="M 222.207031 445.28125 C 220.078125 445.234375 219.214844 442.550781 219.011719 440.433594 C 218.894531 439.238281 218.804688 438.046875 218.734375 436.847656 C 218.519531 433.136719 218.585938 429.179688 220.566406 426.035156 C 222.449219 423.042969 225.839844 421.242188 229.3125 420.59375 C 232.785156 419.945312 236.363281 420.324219 239.851562 420.886719 C 241.234375 421.109375 242.90625 421.636719 243.144531 423.015625 C 243.574219 425.503906 245.289062 427.535156 246.679688 429.640625 C 248.070312 431.742188 249.210938 434.363281 248.339844 436.734375 C 247.257812 439.683594 246.121094 442.726562 243.949219 444.996094 C 242.101562 446.925781 239.628906 448.15625 237.085938 448.964844 C 235.351562 449.515625 233.492188 449.890625 231.710938 449.507812 C 228.289062 448.765625 225.710938 445.359375 222.207031 445.28125 Z M 222.207031 445.28125 " fill-opacity="1" fill-rule="nonzero"/><path fill="#662d91" d="M 103.738281 280.300781 C 104.449219 282.691406 103.851562 285.292969 102.828125 287.570312 C 100.496094 292.761719 95.449219 297.042969 89.753906 297.070312 C 85.988281 297.089844 82.472656 295.332031 79.121094 293.613281 C 77.625 292.847656 76.042969 292 75.234375 290.523438 C 74.800781 289.730469 74.632812 288.820312 74.492188 287.925781 C 73.90625 284.195312 73.730469 280.296875 74.902344 276.707031 C 76.074219 273.113281 78.804688 269.863281 82.453125 268.878906 C 87.285156 267.578125 92.519531 267.507812 97.238281 269.175781 C 97.859375 269.394531 98.570312 269.773438 98.613281 270.429688 C 98.859375 274.171875 102.671875 276.707031 103.738281 280.300781 Z M 103.738281 280.300781 " fill-opacity="1" fill-rule="nonzero"/><path fill="#662d91" d="M 129.746094 211.59375 C 128.09375 210.28125 127.542969 208 127.542969 205.890625 C 127.539062 203.78125 127.976562 201.675781 127.835938 199.570312 C 127.515625 194.664062 131.304688 190.152344 135.902344 188.410156 C 140.503906 186.664062 145.671875 187.21875 150.402344 188.566406 C 150.714844 188.65625 151.035156 188.75 151.285156 188.957031 C 151.773438 189.355469 151.875 190.046875 152.023438 190.65625 C 152.589844 192.984375 154.230469 194.871094 155.574219 196.851562 C 156.917969 198.835938 158.03125 201.265625 157.363281 203.566406 C 156.058594 208.0625 153.515625 212.382812 149.53125 214.847656 C 145.550781 217.308594 139.988281 217.5 136.386719 214.507812 C 134.511719 212.953125 131.652344 213.109375 129.746094 211.59375 Z M 129.746094 211.59375 " fill-opacity="1" fill-rule="nonzero"/><path fill="#662d91" d="M 93.546875 33.035156 C 93.550781 31.957031 93.554688 30.878906 93.5625 29.800781 C 93.570312 27.234375 93.605469 24.566406 94.722656 22.253906 C 95.960938 19.695312 98.410156 17.894531 101.035156 16.796875 C 103.09375 15.933594 105.308594 15.445312 107.539062 15.363281 C 110.570312 15.246094 113.589844 15.875 116.503906 16.722656 C 117.355469 16.972656 118.410156 17.640625 118.078125 18.460938 C 117.429688 20.0625 119.046875 21.570312 120.210938 22.847656 C 123.179688 26.113281 123.75 31.171875 122.085938 35.261719 C 120.417969 39.347656 116.769531 42.445312 112.640625 44.003906 C 109.484375 45.195312 105.550781 45.40625 103.09375 43.09375 C 100.875 41.003906 97.03125 41.332031 95.007812 39.050781 C 93.605469 37.46875 93.539062 35.148438 93.546875 33.035156 Z M 93.546875 33.035156 " fill-opacity="1" fill-rule="nonzero"/></g></g></g><g mask="url(#a5eb799133)"><g transform="matrix(1, 0, 0, 1, 511, 0)"><g clip-path="url(#c9f9f2a5cd)"><g clip-path="url(#0a1bd22992)"><path fill="#662d91" d="M 14.875 252.609375 C 16.261719 252.496094 17.667969 252.382812 19.039062 252.628906 C 23.199219 253.375 26.101562 257.222656 27.6875 261.140625 C 29.53125 265.695312 30.167969 270.734375 29.511719 275.605469 C 29.4375 276.171875 29.335938 276.757812 28.996094 277.214844 C 28.777344 277.507812 28.476562 277.726562 28.179688 277.9375 C 25.304688 280.007812 22.429688 282.082031 19.554688 284.152344 C 18.667969 284.789062 17.683594 285.457031 16.59375 285.375 C 11.460938 284.992188 6.3125 282.8125 3.132812 278.765625 C -0.0429688 274.71875 -0.847656 268.683594 1.902344 264.332031 C 3.351562 262.039062 2.257812 258.855469 3.484375 256.433594 C 4.863281 253.71875 8.421875 253.136719 11.457031 252.886719 C 12.597656 252.796875 13.734375 252.703125 14.875 252.609375 Z M 14.875 252.609375 " fill-opacity="1" fill-rule="nonzero"/></g><path fill="#662d91" d="M 161.574219 274.359375 C 164.832031 275.472656 168.921875 274.921875 171.238281 277.46875 C 173.777344 280.261719 172.375 284.667969 172.878906 288.40625 C 173.21875 290.902344 172.101562 293.445312 170.359375 295.265625 C 168.617188 297.085938 166.3125 298.269531 163.953125 299.152344 C 158.382812 301.234375 152.25 301.796875 146.394531 300.765625 C 145.566406 300.617188 144.652344 300.378906 144.21875 299.660156 C 142.125 296.199219 140.03125 292.738281 137.9375 289.277344 C 137.453125 288.472656 136.949219 287.574219 137.117188 286.652344 C 137.96875 281.964844 140.410156 277.480469 144.246094 274.65625 C 148.085938 271.835938 153.367188 270.867188 157.78125 272.65625 C 159.066406 273.175781 160.261719 273.910156 161.574219 274.359375 Z M 161.574219 274.359375 " fill-opacity="1" fill-rule="nonzero"/><path fill="#662d91" d="M 437.050781 197.25 C 436.496094 195.425781 437.972656 193.632812 438.222656 191.742188 C 438.414062 190.289062 438.371094 188.148438 439.835938 188.097656 C 443.734375 187.964844 446.449219 183.933594 450.257812 183.089844 C 453.496094 182.371094 456.722656 184.089844 459.574219 185.78125 C 463.117188 187.882812 465.683594 191.570312 466.417969 195.621094 C 467.15625 199.675781 466.054688 204.027344 463.476562 207.242188 C 461.421875 209.8125 462.382812 214.191406 459.773438 216.195312 C 458.683594 217.027344 457.234375 217.195312 455.867188 217.257812 C 453.082031 217.390625 450.28125 217.21875 447.53125 216.75 C 446.632812 216.597656 445.730469 216.410156 444.878906 216.082031 C 439.917969 214.183594 437.882812 208.210938 437.632812 202.90625 C 437.546875 201.007812 437.601562 199.070312 437.050781 197.25 Z M 437.050781 197.25 " fill-opacity="1" fill-rule="nonzero"/><path fill="#662d91" d="M 209.0625 231.5625 C 206.554688 230.21875 203.964844 228.800781 202.253906 226.523438 C 200.695312 224.441406 200.027344 221.832031 199.578125 219.269531 C 199.25 217.402344 199.023438 215.453125 199.539062 213.628906 C 200.636719 209.753906 204.808594 207.269531 205.65625 203.332031 C 206.027344 201.617188 207.644531 200.394531 209.347656 199.96875 C 211.046875 199.542969 212.835938 199.757812 214.574219 199.976562 C 217.511719 200.347656 220.558594 200.753906 223.054688 202.34375 C 227.574219 205.222656 229.070312 211.207031 228.785156 216.554688 C 228.601562 219.949219 227.859375 223.308594 226.597656 226.460938 C 226.371094 227.027344 226.113281 227.605469 225.652344 228.003906 C 225.289062 228.316406 224.828125 228.492188 224.378906 228.660156 C 221.414062 229.773438 218.453125 230.886719 215.488281 232 C 214.441406 232.394531 213.351562 232.792969 212.234375 232.722656 C 211.101562 232.648438 210.0625 232.101562 209.0625 231.5625 Z M 209.0625 231.5625 " fill-opacity="1" fill-rule="nonzero"/><path fill="#662d91" d="M 36.25 152.414062 C 34.824219 151.703125 33.761719 150.371094 32.285156 149.769531 C 30.910156 149.210938 29.3125 149.351562 27.976562 148.707031 C 25.375 147.457031 24.917969 144.007812 24.808594 141.117188 C 24.65625 137.046875 24.574219 132.695312 26.746094 129.253906 C 28.730469 126.105469 32.351562 124.261719 36.027344 123.6875 C 39.699219 123.109375 43.457031 123.660156 47.097656 124.425781 C 48.019531 124.617188 49.140625 125.042969 49.210938 125.984375 C 49.480469 129.734375 53.453125 132.195312 54.453125 135.816406 C 55.320312 138.964844 53.78125 142.21875 52.285156 145.121094 C 51.691406 146.265625 51.089844 147.429688 50.214844 148.375 C 48.8125 149.886719 46.839844 150.710938 44.933594 151.492188 C 42.148438 152.628906 38.9375 153.761719 36.25 152.414062 Z M 36.25 152.414062 " fill-opacity="1" fill-rule="nonzero"/><path fill="#662d91" d="M 184.4375 146.246094 C 182.992188 146.710938 181.476562 147.179688 179.976562 146.921875 C 177.011719 146.40625 174.945312 143.1875 171.9375 143.046875 C 169.804688 142.949219 167.964844 141.289062 167.160156 139.3125 C 166.355469 137.335938 166.429688 135.101562 166.824219 133.003906 C 166.964844 132.257812 167.144531 131.484375 166.949219 130.75 C 165.664062 125.875 169.273438 120.734375 173.90625 118.75 C 178.539062 116.769531 183.839844 117.25 188.78125 118.234375 C 189.789062 118.433594 191.023438 118.910156 191.058594 119.9375 C 191.1875 123.710938 195.230469 126.207031 196.230469 129.84375 C 197.121094 133.089844 195.433594 136.425781 193.796875 139.363281 C 193.21875 140.398438 192.636719 141.445312 191.84375 142.328125 C 189.957031 144.4375 187.132812 145.386719 184.4375 146.246094 Z M 184.4375 146.246094 " fill-opacity="1" fill-rule="nonzero"/><path fill="#662d91" d="M 304.585938 373.980469 C 302.757812 373.984375 301.175781 372.546875 300.445312 370.871094 C 299.710938 369.195312 299.65625 367.316406 299.609375 365.488281 C 299.511719 361.582031 299.484375 357.414062 301.582031 354.121094 C 303.367188 351.308594 306.507812 349.558594 309.761719 348.855469 C 313.015625 348.152344 316.398438 348.402344 319.695312 348.882812 C 320.945312 349.066406 322.269531 349.324219 323.1875 350.195312 C 323.683594 350.671875 324.015625 351.289062 324.335938 351.898438 C 325.96875 354.96875 327.601562 358.039062 329.230469 361.109375 C 329.570312 361.746094 329.921875 362.457031 329.757812 363.164062 C 328.6875 367.808594 326.398438 372.34375 322.5625 375.175781 C 318.726562 378.007812 313.183594 378.777344 309.144531 376.242188 C 307.683594 375.324219 306.308594 373.976562 304.585938 373.980469 Z M 304.585938 373.980469 " fill-opacity="1" fill-rule="nonzero"/><path fill="#662d91" d="M 430.605469 82.253906 C 428.503906 81.222656 425.828125 81.195312 424.226562 79.484375 C 423.320312 78.519531 422.941406 77.171875 422.746094 75.863281 C 422.339844 73.15625 422.585938 70.394531 422.835938 67.667969 C 422.960938 66.289062 423.089844 64.890625 423.519531 63.574219 C 424.839844 59.503906 428.902344 56.789062 433.101562 55.960938 C 437.296875 55.136719 441.636719 55.894531 445.800781 56.871094 C 446.167969 56.957031 446.605469 57.125 446.644531 57.496094 C 447.203125 62.597656 453.441406 66.320312 452.480469 71.359375 C 451.195312 78.078125 445.664062 83.949219 438.914062 85.035156 C 437.5625 85.25 436.148438 85.28125 434.867188 84.808594 C 433.308594 84.234375 432.09375 82.984375 430.605469 82.253906 Z M 430.605469 82.253906 " fill-opacity="1" fill-rule="nonzero"/><path fill="#662d91" d="M 231.339844 114.820312 C 229.414062 113.816406 227.007812 113.796875 225.335938 112.414062 C 223.355469 110.78125 223.117188 107.890625 223.03125 105.328125 C 222.878906 100.796875 222.898438 95.765625 225.945312 92.414062 C 227.648438 90.539062 230.082031 89.484375 232.535156 88.855469 C 236.777344 87.773438 241.304688 87.832031 245.515625 89.027344 C 246.359375 89.265625 247.324219 89.699219 247.460938 90.566406 C 248.238281 95.460938 253.835938 99.207031 252.898438 104.074219 C 251.578125 110.925781 245.542969 116.59375 238.625 117.480469 C 237.519531 117.625 236.371094 117.648438 235.320312 117.28125 C 233.839844 116.765625 232.726562 115.542969 231.339844 114.820312 Z M 231.339844 114.820312 " fill-opacity="1" fill-rule="nonzero"/><path fill="#662d91" d="M 229.109375 322.582031 C 227.523438 321.578125 225.734375 320.894531 223.886719 320.570312 C 222.425781 320.320312 221.320312 319.023438 220.855469 317.617188 C 220.390625 316.210938 220.445312 314.695312 220.503906 313.210938 C 220.570312 311.546875 220.636719 309.882812 220.703125 308.21875 C 220.753906 306.941406 220.808594 305.652344 221.085938 304.40625 C 221.632812 301.949219 223.078125 299.707031 225.085938 298.195312 C 227.898438 296.074219 231.582031 295.472656 235.101562 295.464844 C 237.585938 295.460938 240.070312 295.722656 242.5 296.238281 C 243.070312 296.359375 243.660156 296.507812 244.089844 296.894531 C 245.042969 297.753906 244.789062 299.289062 245.214844 300.492188 C 245.648438 301.714844 246.761719 302.539062 247.628906 303.5 C 250.875 307.089844 250.613281 312.882812 248.15625 317.046875 C 245.722656 321.167969 241.359375 324.09375 236.625 324.773438 C 235.121094 324.988281 233.542969 324.980469 232.136719 324.410156 C 231.042969 323.964844 230.109375 323.210938 229.109375 322.582031 Z M 229.109375 322.582031 " fill-opacity="1" fill-rule="nonzero"/><path fill="#662d91" d="M 257.617188 35.003906 C 257.75 34.386719 257.929688 33.777344 257.96875 33.148438 C 258.023438 32.371094 257.859375 31.597656 257.808594 30.820312 C 257.574219 27.253906 259.75 23.808594 262.75 21.863281 C 265.75 19.917969 269.441406 19.296875 273.015625 19.367188 C 275.472656 19.417969 277.917969 19.777344 280.285156 20.429688 C 280.648438 20.53125 281.023438 20.644531 281.296875 20.902344 C 281.710938 21.289062 281.804688 21.894531 281.9375 22.445312 C 283.007812 26.859375 287.941406 30.175781 287.347656 34.679688 C 286.386719 41.96875 280.007812 48.183594 272.699219 48.949219 C 271.671875 49.054688 270.605469 49.0625 269.652344 48.667969 C 267.691406 47.863281 266.414062 45.484375 264.296875 45.460938 C 261.929688 45.433594 259.710938 43.933594 258.527344 41.886719 C 257.34375 39.835938 257.125 37.320312 257.617188 35.003906 Z M 257.617188 35.003906 " fill-opacity="1" fill-rule="nonzero"/><path fill="#662d91" d="M 193.476562 25.433594 C 191.792969 25.046875 190.535156 23.558594 189.949219 21.9375 C 189.359375 20.3125 189.324219 18.546875 189.296875 16.820312 C 189.234375 13.074219 189.238281 9.089844 191.222656 5.90625 C 193.804688 1.765625 199.105469 0.128906 203.988281 0.09375 C 206.839844 0.0742188 209.695312 0.488281 212.421875 1.316406 C 212.773438 1.421875 213.136719 1.546875 213.375 1.820312 C 213.683594 2.164062 213.714844 2.664062 213.789062 3.121094 C 214.335938 6.507812 217.613281 8.8125 218.746094 12.054688 C 219.855469 15.226562 218.714844 18.773438 216.941406 21.628906 C 215.042969 24.679688 212.335938 27.324219 208.992188 28.636719 C 205.644531 29.949219 201.628906 29.78125 198.675781 27.734375 C 197.109375 26.644531 195.332031 25.859375 193.476562 25.433594 Z M 193.476562 25.433594 " fill-opacity="1" fill-rule="nonzero"/><path fill="#662d91" d="M 343.742188 165.214844 C 341.496094 165.097656 339.644531 163.246094 338.824219 161.152344 C 338.007812 159.058594 338.019531 156.746094 338.039062 154.5 C 338.066406 151.929688 338.101562 149.285156 339.078125 146.90625 C 340.652344 143.0625 344.519531 140.496094 348.574219 139.613281 C 352.632812 138.730469 356.871094 139.316406 360.902344 140.308594 C 361.394531 140.429688 361.984375 140.664062 362.039062 141.167969 C 362.578125 146.101562 368.6875 149.542969 368.015625 154.464844 C 367.054688 161.523438 361.113281 167.605469 354.078125 168.734375 C 353.101562 168.894531 352.09375 168.960938 351.128906 168.738281 C 348.441406 168.117188 346.492188 165.359375 343.742188 165.214844 Z M 343.742188 165.214844 " fill-opacity="1" fill-rule="nonzero"/><path fill="#662d91" d="M 264.796875 198.058594 C 263.519531 197.691406 262.4375 196.847656 261.304688 196.148438 C 259.753906 195.191406 258.050781 194.476562 256.28125 194.042969 C 254.285156 193.554688 252.84375 191.722656 252.242188 189.757812 C 251.636719 187.792969 251.722656 185.695312 251.816406 183.644531 C 251.960938 180.410156 252.160156 177.011719 253.894531 174.28125 C 255.8125 171.261719 259.328125 169.585938 262.839844 168.90625 C 266.523438 168.195312 270.386719 168.421875 273.960938 169.558594 C 274.40625 169.699219 274.863281 169.863281 275.195312 170.1875 C 275.414062 170.398438 275.566406 170.664062 275.714844 170.925781 C 277.34375 173.765625 278.972656 176.605469 280.601562 179.445312 C 281.476562 180.96875 282.378906 182.742188 281.804688 184.402344 C 280.703125 187.585938 279.542969 190.871094 277.222656 193.316406 C 275.324219 195.316406 272.78125 196.59375 270.175781 197.503906 C 268.445312 198.105469 266.558594 198.566406 264.796875 198.058594 Z M 264.796875 198.058594 " fill-opacity="1" fill-rule="nonzero"/><path fill="#662d91" d="M 335.609375 273.394531 C 333.953125 272.738281 332.675781 271.339844 331.035156 270.636719 C 329.382812 269.929688 327.410156 269.949219 325.976562 268.863281 C 324.542969 267.777344 324.035156 265.867188 323.832031 264.082031 C 323.515625 261.304688 323.722656 258.496094 323.957031 255.710938 C 324.050781 254.636719 324.148438 253.558594 324.4375 252.519531 C 325.578125 248.425781 329.597656 245.648438 333.753906 244.757812 C 337.910156 243.867188 342.222656 244.523438 346.414062 245.234375 C 347.015625 245.335938 347.765625 245.597656 347.792969 246.207031 C 347.988281 250.707031 353.1875 253.710938 353.578125 258.195312 C 353.75 260.171875 352.945312 262.082031 352.152344 263.902344 C 351.390625 265.65625 350.601562 267.453125 349.300781 268.859375 C 347.824219 270.457031 345.808594 271.429688 343.8125 272.296875 C 341.210938 273.425781 338.246094 274.445312 335.609375 273.394531 Z M 335.609375 273.394531 " fill-opacity="1" fill-rule="nonzero"/><path fill="#662d91" d="M 151.285156 356.378906 C 151.324219 354.273438 151.363281 352.167969 151.402344 350.058594 C 151.417969 349.191406 151.433594 348.320312 151.578125 347.464844 C 152.121094 344.238281 154.476562 341.503906 157.359375 339.957031 C 160.242188 338.410156 163.589844 337.929688 166.859375 337.980469 C 168.816406 338.007812 170.769531 338.214844 172.691406 338.597656 C 173.984375 338.859375 175.503906 339.441406 175.722656 340.742188 C 176.523438 345.460938 182.078125 349.03125 181.074219 353.707031 C 179.566406 360.753906 173.542969 367.296875 166.339844 367.117188 C 162.890625 367.027344 159.667969 365.476562 156.570312 363.957031 C 154.601562 362.992188 152.472656 361.855469 151.671875 359.816406 C 151.246094 358.734375 151.261719 357.539062 151.285156 356.378906 Z M 151.285156 356.378906 " fill-opacity="1" fill-rule="nonzero"/><path fill="#662d91" d="M 376.402344 320.234375 C 378.972656 318.6875 381.9375 317.800781 384.933594 317.691406 C 388.027344 317.574219 391.089844 318.265625 394.089844 319.035156 C 394.414062 319.117188 394.757812 319.214844 394.976562 319.464844 C 395.214844 319.734375 395.257812 320.117188 395.316406 320.46875 C 396.117188 325.246094 401.734375 328.8125 400.828125 333.570312 C 399.632812 339.847656 394.652344 345.242188 388.492188 346.9375 C 386.472656 347.492188 384.226562 347.652344 382.355469 346.71875 C 381.125 346.105469 380.15625 345.074219 378.953125 344.414062 C 376.542969 343.097656 373.117188 343.160156 371.777344 340.761719 C 371.234375 339.792969 371.199219 338.632812 371.171875 337.523438 C 371.128906 335.535156 371.085938 333.542969 371.042969 331.554688 C 370.992188 329.382812 370.960938 327.136719 371.800781 325.132812 C 372.679688 323.03125 374.453125 321.410156 376.402344 320.234375 Z M 376.402344 320.234375 " fill-opacity="1" fill-rule="nonzero"/><path fill="#662d91" d="M 48.871094 387.230469 C 47.394531 387.164062 46.164062 385.957031 45.613281 384.582031 C 45.058594 383.210938 45.046875 381.691406 45.042969 380.210938 C 45.039062 378.804688 45.035156 377.398438 45.03125 375.992188 C 45.027344 373.394531 45.046875 370.671875 46.273438 368.382812 C 47.394531 366.28125 49.417969 364.792969 51.5625 363.761719 C 56.628906 361.332031 62.738281 361.1875 67.914062 363.375 C 68.195312 363.492188 68.476562 363.621094 68.703125 363.828125 C 69.207031 364.28125 69.332031 365.007812 69.519531 365.660156 C 70.15625 367.90625 71.78125 369.707031 73.078125 371.644531 C 74.375 373.582031 75.398438 376 74.636719 378.207031 C 73.578125 381.261719 72.460938 384.414062 70.234375 386.757812 C 68.40625 388.683594 65.953125 389.914062 63.441406 390.78125 C 61.738281 391.371094 59.910156 391.8125 58.140625 391.460938 C 54.777344 390.789062 52.296875 387.394531 48.871094 387.230469 Z M 48.871094 387.230469 " fill-opacity="1" fill-rule="nonzero"/><g clip-path="url(#ae9141b021)"><path fill="#662d91" d="M 509.207031 383.277344 C 508.148438 386.472656 507.015625 389.789062 504.644531 392.179688 C 502.890625 393.941406 500.585938 395.058594 498.230469 395.863281 C 496.621094 396.414062 494.917969 396.835938 493.230469 396.617188 C 491.785156 396.429688 490.441406 395.785156 489.128906 395.148438 C 487.074219 394.15625 485.019531 393.160156 482.964844 392.164062 C 482.230469 391.808594 481.476562 391.4375 480.941406 390.824219 C 480.429688 390.238281 480.160156 389.480469 479.96875 388.726562 C 479.371094 386.367188 479.410156 383.898438 479.449219 381.460938 C 479.488281 379.351562 479.53125 377.195312 480.253906 375.214844 C 481.625 371.457031 485.285156 368.902344 489.144531 367.855469 C 490.519531 367.480469 491.933594 367.269531 493.355469 367.183594 C 496.53125 366.996094 499.746094 367.460938 502.738281 368.535156 C 503.675781 368.871094 503.890625 370.058594 504.160156 371.019531 C 504.78125 373.214844 506.367188 374.976562 507.640625 376.867188 C 508.914062 378.757812 509.925781 381.113281 509.207031 383.277344 Z M 509.207031 383.277344 " fill-opacity="1" fill-rule="nonzero"/></g><path fill="#662d91" d="M 328.605469 64.972656 C 327.378906 63.601562 327.320312 61.578125 327.328125 59.738281 C 327.335938 57.59375 327.347656 55.445312 327.355469 53.296875 C 327.359375 52.566406 327.363281 51.835938 327.453125 51.113281 C 327.992188 46.914062 331.5625 43.566406 335.574219 42.210938 C 339.582031 40.855469 343.960938 41.160156 348.136719 41.847656 C 349.769531 42.117188 351.78125 42.875 351.8125 44.527344 C 351.871094 47.539062 355.058594 49.445312 356.359375 52.160156 C 357.332031 54.1875 357.191406 56.589844 356.582031 58.753906 C 354.785156 65.144531 348.804688 70.132812 342.199219 70.761719 C 341.417969 70.835938 340.621094 70.855469 339.863281 70.660156 C 338.011719 70.183594 336.695312 68.550781 334.984375 67.691406 C 332.894531 66.644531 330.164062 66.714844 328.605469 64.972656 Z M 328.605469 64.972656 " fill-opacity="1" fill-rule="nonzero"/><path fill="#662d91" d="M 221.34375 445.28125 C 219.21875 445.234375 218.351562 442.550781 218.148438 440.433594 C 218.035156 439.238281 217.941406 438.046875 217.871094 436.847656 C 217.65625 433.136719 217.726562 429.179688 219.707031 426.035156 C 221.585938 423.042969 224.976562 421.242188 228.449219 420.59375 C 231.921875 419.945312 235.503906 420.324219 238.992188 420.886719 C 240.371094 421.109375 242.042969 421.636719 242.28125 423.015625 C 242.710938 425.503906 244.425781 427.535156 245.816406 429.640625 C 247.207031 431.742188 248.347656 434.363281 247.480469 436.734375 C 246.398438 439.683594 245.257812 442.726562 243.085938 444.996094 C 241.242188 446.925781 238.769531 448.15625 236.222656 448.964844 C 234.488281 449.515625 232.628906 449.890625 230.851562 449.507812 C 227.425781 448.765625 224.847656 445.359375 221.34375 445.28125 Z M 221.34375 445.28125 " fill-opacity="1" fill-rule="nonzero"/><path fill="#662d91" d="M 102.878906 280.300781 C 103.585938 282.691406 102.992188 285.292969 101.96875 287.570312 C 99.632812 292.761719 94.585938 297.042969 88.890625 297.070312 C 85.125 297.089844 81.609375 295.332031 78.257812 293.613281 C 76.761719 292.847656 75.179688 292 74.371094 290.523438 C 73.9375 289.730469 73.769531 288.820312 73.628906 287.925781 C 73.042969 284.195312 72.867188 280.296875 74.039062 276.707031 C 75.214844 273.113281 77.941406 269.863281 81.589844 268.878906 C 86.421875 267.578125 91.65625 267.507812 96.375 269.175781 C 96.996094 269.394531 97.707031 269.773438 97.753906 270.429688 C 98 274.171875 101.808594 276.707031 102.878906 280.300781 Z M 102.878906 280.300781 " fill-opacity="1" fill-rule="nonzero"/><path fill="#662d91" d="M 128.882812 211.59375 C 127.234375 210.28125 126.683594 208 126.679688 205.890625 C 126.675781 203.78125 127.113281 201.675781 126.976562 199.570312 C 126.652344 194.664062 130.441406 190.152344 135.042969 188.410156 C 139.640625 186.664062 144.808594 187.21875 149.539062 188.566406 C 149.851562 188.65625 150.171875 188.75 150.421875 188.957031 C 150.910156 189.355469 151.011719 190.046875 151.164062 190.65625 C 151.730469 192.984375 153.367188 194.871094 154.710938 196.851562 C 156.054688 198.835938 157.171875 201.265625 156.503906 203.566406 C 155.195312 208.0625 152.652344 212.382812 148.671875 214.847656 C 144.6875 217.308594 139.125 217.5 135.523438 214.507812 C 133.648438 212.953125 130.789062 213.109375 128.882812 211.59375 Z M 128.882812 211.59375 " fill-opacity="1" fill-rule="nonzero"/><path fill="#662d91" d="M 92.6875 33.035156 C 92.691406 31.957031 92.695312 30.878906 92.699219 29.800781 C 92.710938 27.234375 92.742188 24.566406 93.859375 22.253906 C 95.101562 19.695312 97.546875 17.894531 100.171875 16.796875 C 102.230469 15.933594 104.445312 15.445312 106.675781 15.363281 C 109.710938 15.246094 112.726562 15.875 115.640625 16.722656 C 116.492188 16.972656 117.550781 17.640625 117.214844 18.460938 C 116.566406 20.0625 118.1875 21.570312 119.347656 22.847656 C 122.316406 26.113281 122.886719 31.171875 121.222656 35.261719 C 119.558594 39.347656 115.910156 42.445312 111.777344 44.003906 C 108.625 45.195312 104.6875 45.40625 102.234375 43.09375 C 100.011719 41.003906 96.167969 41.332031 94.144531 39.050781 C 92.742188 37.46875 92.675781 35.148438 92.6875 33.035156 Z M 92.6875 33.035156 " fill-opacity="1" fill-rule="nonzero"/></g></g></g><g mask="url(#d68cc4ef23)"><g transform="matrix(1, 0, 0, 1, 930, 0)"><g clip-path="url(#29e71d42e0)"><path fill="#662d91" d="M 14.847656 252.609375 C 16.238281 252.496094 17.644531 252.382812 19.015625 252.628906 C 23.171875 253.375 26.074219 257.222656 27.660156 261.140625 C 29.503906 265.695312 30.140625 270.734375 29.488281 275.605469 C 29.410156 276.171875 29.308594 276.757812 28.96875 277.214844 C 28.75 277.507812 28.449219 277.726562 28.15625 277.9375 C 25.28125 280.007812 22.40625 282.082031 19.527344 284.152344 C 18.644531 284.789062 17.65625 285.457031 16.566406 285.375 C 11.4375 284.992188 6.285156 282.8125 3.109375 278.765625 C -0.0703125 274.71875 -0.871094 268.683594 1.878906 264.332031 C 3.328125 262.039062 2.234375 258.855469 3.460938 256.433594 C 4.839844 253.71875 8.394531 253.136719 11.429688 252.886719 C 12.570312 252.796875 13.710938 252.703125 14.847656 252.609375 Z M 14.847656 252.609375 " fill-opacity="1" fill-rule="nonzero"/><path fill="#662d91" d="M 161.546875 274.359375 C 164.808594 275.472656 168.894531 274.921875 171.210938 277.46875 C 173.75 280.261719 172.347656 284.667969 172.855469 288.40625 C 173.191406 290.902344 172.074219 293.445312 170.332031 295.265625 C 168.589844 297.085938 166.285156 298.269531 163.925781 299.152344 C 158.355469 301.234375 152.226562 301.796875 146.367188 300.765625 C 145.542969 300.617188 144.628906 300.378906 144.191406 299.660156 C 142.097656 296.199219 140.003906 292.738281 137.910156 289.277344 C 137.425781 288.472656 136.921875 287.574219 137.089844 286.652344 C 137.945312 281.964844 140.382812 277.480469 144.222656 274.65625 C 148.058594 271.835938 153.339844 270.867188 157.753906 272.65625 C 159.039062 273.175781 160.234375 273.910156 161.546875 274.359375 Z M 161.546875 274.359375 " fill-opacity="1" fill-rule="nonzero"/><path fill="#662d91" d="M 437.023438 197.25 C 436.472656 195.425781 437.945312 193.632812 438.195312 191.742188 C 438.390625 190.289062 438.347656 188.148438 439.8125 188.097656 C 443.707031 187.964844 446.425781 183.933594 450.230469 183.089844 C 453.46875 182.371094 456.695312 184.089844 459.550781 185.78125 C 463.09375 187.882812 465.65625 191.570312 466.394531 195.621094 C 467.128906 199.675781 466.027344 204.027344 463.453125 207.242188 C 461.394531 209.8125 462.359375 214.191406 459.746094 216.195312 C 458.65625 217.027344 457.210938 217.195312 455.839844 217.257812 C 453.054688 217.390625 450.253906 217.21875 447.503906 216.75 C 446.605469 216.597656 445.707031 216.410156 444.851562 216.082031 C 439.894531 214.183594 437.855469 208.210938 437.609375 202.90625 C 437.519531 201.007812 437.574219 199.070312 437.023438 197.25 Z M 437.023438 197.25 " fill-opacity="1" fill-rule="nonzero"/><path fill="#662d91" d="M 209.035156 231.5625 C 206.527344 230.21875 203.9375 228.800781 202.230469 226.523438 C 200.671875 224.441406 200 221.832031 199.550781 219.269531 C 199.222656 217.402344 198.996094 215.453125 199.511719 213.628906 C 200.609375 209.753906 204.78125 207.269531 205.632812 203.332031 C 206 201.617188 207.621094 200.394531 209.320312 199.96875 C 211.023438 199.542969 212.808594 199.757812 214.550781 199.976562 C 217.488281 200.347656 220.53125 200.753906 223.03125 202.34375 C 227.546875 205.222656 229.046875 211.207031 228.757812 216.554688 C 228.578125 219.949219 227.835938 223.308594 226.570312 226.460938 C 226.34375 227.027344 226.085938 227.605469 225.628906 228.003906 C 225.261719 228.316406 224.800781 228.492188 224.351562 228.660156 C 221.390625 229.773438 218.425781 230.886719 215.464844 232 C 214.414062 232.394531 213.328125 232.792969 212.207031 232.722656 C 211.074219 232.648438 210.035156 232.101562 209.035156 231.5625 Z M 209.035156 231.5625 " fill-opacity="1" fill-rule="nonzero"/><path fill="#662d91" d="M 36.222656 152.414062 C 34.796875 151.703125 33.734375 150.371094 32.257812 149.769531 C 30.882812 149.210938 29.289062 149.351562 27.949219 148.707031 C 25.347656 147.457031 24.890625 144.007812 24.78125 141.117188 C 24.628906 137.046875 24.546875 132.695312 26.71875 129.253906 C 28.703125 126.105469 32.324219 124.261719 36 123.6875 C 39.675781 123.109375 43.429688 123.660156 47.070312 124.425781 C 47.996094 124.617188 49.113281 125.042969 49.183594 125.984375 C 49.457031 129.734375 53.429688 132.195312 54.425781 135.816406 C 55.292969 138.964844 53.753906 142.21875 52.257812 145.121094 C 51.667969 146.265625 51.066406 147.429688 50.1875 148.375 C 48.785156 149.886719 46.8125 150.710938 44.90625 151.492188 C 42.125 152.628906 38.910156 153.761719 36.222656 152.414062 Z M 36.222656 152.414062 " fill-opacity="1" fill-rule="nonzero"/><path fill="#662d91" d="M 184.410156 146.246094 C 182.964844 146.710938 181.449219 147.179688 179.953125 146.921875 C 176.984375 146.40625 174.917969 143.1875 171.910156 143.046875 C 169.777344 142.949219 167.9375 141.289062 167.132812 139.3125 C 166.328125 137.335938 166.402344 135.101562 166.796875 133.003906 C 166.9375 132.257812 167.117188 131.484375 166.921875 130.75 C 165.636719 125.875 169.246094 120.734375 173.878906 118.75 C 178.511719 116.769531 183.8125 117.25 188.757812 118.234375 C 189.761719 118.433594 190.996094 118.910156 191.03125 119.9375 C 191.164062 123.710938 195.203125 126.207031 196.203125 129.84375 C 197.097656 133.089844 195.40625 136.425781 193.769531 139.363281 C 193.195312 140.398438 192.609375 141.445312 191.820312 142.328125 C 189.933594 144.4375 187.105469 145.386719 184.410156 146.246094 Z M 184.410156 146.246094 " fill-opacity="1" fill-rule="nonzero"/><path fill="#662d91" d="M 304.558594 373.980469 C 302.730469 373.984375 301.152344 372.546875 300.417969 370.871094 C 299.6875 369.195312 299.628906 367.316406 299.585938 365.488281 C 299.488281 361.582031 299.457031 357.414062 301.554688 354.121094 C 303.34375 351.308594 306.480469 349.558594 309.734375 348.855469 C 312.988281 348.152344 316.375 348.402344 319.667969 348.882812 C 320.917969 349.066406 322.246094 349.324219 323.160156 350.195312 C 323.65625 350.671875 323.988281 351.289062 324.3125 351.898438 C 325.941406 354.96875 327.574219 358.039062 329.207031 361.109375 C 329.546875 361.746094 329.894531 362.457031 329.734375 363.164062 C 328.660156 367.808594 326.371094 372.34375 322.535156 375.175781 C 318.699219 378.007812 313.15625 378.777344 309.117188 376.242188 C 307.65625 375.324219 306.28125 373.976562 304.558594 373.980469 Z M 304.558594 373.980469 " fill-opacity="1" fill-rule="nonzero"/><path fill="#662d91" d="M 430.578125 82.253906 C 428.476562 81.222656 425.804688 81.195312 424.203125 79.484375 C 423.296875 78.519531 422.917969 77.171875 422.71875 75.863281 C 422.316406 73.15625 422.5625 70.394531 422.808594 67.667969 C 422.933594 66.289062 423.0625 64.890625 423.492188 63.574219 C 424.816406 59.503906 428.875 56.789062 433.074219 55.960938 C 437.273438 55.136719 441.609375 55.894531 445.777344 56.871094 C 446.140625 56.957031 446.578125 57.125 446.621094 57.496094 C 447.175781 62.597656 453.417969 66.320312 452.453125 71.359375 C 451.167969 78.078125 445.640625 83.949219 438.886719 85.035156 C 437.539062 85.25 436.121094 85.28125 434.839844 84.808594 C 433.28125 84.234375 432.070312 82.984375 430.578125 82.253906 Z M 430.578125 82.253906 " fill-opacity="1" fill-rule="nonzero"/><path fill="#662d91" d="M 231.3125 114.820312 C 229.390625 113.816406 226.980469 113.796875 225.308594 112.414062 C 223.332031 110.78125 223.089844 107.890625 223.003906 105.328125 C 222.851562 100.796875 222.875 95.765625 225.921875 92.414062 C 227.621094 90.539062 230.054688 89.484375 232.507812 88.855469 C 236.75 87.773438 241.277344 87.832031 245.492188 89.027344 C 246.332031 89.265625 247.300781 89.699219 247.4375 90.566406 C 248.214844 95.460938 253.808594 99.207031 252.871094 104.074219 C 251.554688 110.925781 245.515625 116.59375 238.601562 117.480469 C 237.496094 117.625 236.347656 117.648438 235.292969 117.28125 C 233.816406 116.765625 232.699219 115.542969 231.3125 114.820312 Z M 231.3125 114.820312 " fill-opacity="1" fill-rule="nonzero"/><path fill="#662d91" d="M 229.085938 322.582031 C 227.496094 321.578125 225.710938 320.894531 223.859375 320.570312 C 222.398438 320.320312 221.296875 319.023438 220.832031 317.617188 C 220.363281 316.210938 220.417969 314.695312 220.476562 313.210938 C 220.542969 311.546875 220.613281 309.882812 220.679688 308.21875 C 220.730469 306.941406 220.78125 305.652344 221.058594 304.40625 C 221.609375 301.949219 223.054688 299.707031 225.0625 298.195312 C 227.875 296.074219 231.554688 295.472656 235.074219 295.464844 C 237.558594 295.460938 240.042969 295.722656 242.472656 296.238281 C 243.042969 296.359375 243.632812 296.507812 244.066406 296.894531 C 245.015625 297.753906 244.761719 299.289062 245.191406 300.492188 C 245.621094 301.714844 246.734375 302.539062 247.605469 303.5 C 250.847656 307.089844 250.589844 312.882812 248.128906 317.046875 C 245.699219 321.167969 241.332031 324.09375 236.597656 324.773438 C 235.09375 324.988281 233.515625 324.980469 232.109375 324.410156 C 231.015625 323.964844 230.082031 323.210938 229.085938 322.582031 Z M 229.085938 322.582031 " fill-opacity="1" fill-rule="nonzero"/><path fill="#662d91" d="M 257.59375 35.003906 C 257.722656 34.386719 257.902344 33.777344 257.945312 33.148438 C 257.996094 32.371094 257.835938 31.597656 257.785156 30.820312 C 257.546875 27.253906 259.726562 23.808594 262.722656 21.863281 C 265.722656 19.917969 269.417969 19.296875 272.988281 19.367188 C 275.445312 19.417969 277.894531 19.777344 280.261719 20.429688 C 280.621094 20.53125 280.996094 20.644531 281.273438 20.902344 C 281.6875 21.289062 281.78125 21.894531 281.914062 22.445312 C 282.980469 26.859375 287.914062 30.175781 287.320312 34.679688 C 286.363281 41.96875 279.980469 48.183594 272.671875 48.949219 C 271.648438 49.054688 270.578125 49.0625 269.625 48.667969 C 267.667969 47.863281 266.386719 45.484375 264.269531 45.460938 C 261.902344 45.433594 259.683594 43.933594 258.5 41.886719 C 257.320312 39.835938 257.097656 37.320312 257.59375 35.003906 Z M 257.59375 35.003906 " fill-opacity="1" fill-rule="nonzero"/><path fill="#662d91" d="M 193.449219 25.433594 C 191.765625 25.046875 190.511719 23.558594 189.921875 21.9375 C 189.332031 20.3125 189.296875 18.546875 189.269531 16.820312 C 189.210938 13.074219 189.210938 9.089844 191.195312 5.90625 C 193.777344 1.765625 199.078125 0.128906 203.960938 0.09375 C 206.8125 0.0742188 209.667969 0.488281 212.398438 1.316406 C 212.746094 1.421875 213.109375 1.546875 213.351562 1.820312 C 213.65625 2.164062 213.691406 2.664062 213.765625 3.121094 C 214.3125 6.507812 217.589844 8.8125 218.71875 12.054688 C 219.828125 15.226562 218.6875 18.773438 216.914062 21.628906 C 215.015625 24.679688 212.3125 27.324219 208.964844 28.636719 C 205.621094 29.949219 201.605469 29.78125 198.648438 27.734375 C 197.082031 26.644531 195.308594 25.859375 193.449219 25.433594 Z M 193.449219 25.433594 " fill-opacity="1" fill-rule="nonzero"/><path fill="#662d91" d="M 343.714844 165.214844 C 341.472656 165.097656 339.617188 163.246094 338.800781 161.152344 C 337.984375 159.058594 337.992188 156.746094 338.015625 154.5 C 338.039062 151.929688 338.078125 149.285156 339.050781 146.90625 C 340.625 143.0625 344.492188 140.496094 348.550781 139.613281 C 352.605469 138.730469 356.84375 139.316406 360.875 140.308594 C 361.367188 140.429688 361.957031 140.664062 362.011719 141.167969 C 362.550781 146.101562 368.660156 149.542969 367.988281 154.464844 C 367.027344 161.523438 361.085938 167.605469 354.054688 168.734375 C 353.078125 168.894531 352.066406 168.960938 351.101562 168.738281 C 348.414062 168.117188 346.46875 165.359375 343.714844 165.214844 Z M 343.714844 165.214844 " fill-opacity="1" fill-rule="nonzero"/><path fill="#662d91" d="M 264.769531 198.058594 C 263.492188 197.691406 262.410156 196.847656 261.277344 196.148438 C 259.726562 195.191406 258.023438 194.476562 256.253906 194.042969 C 254.261719 193.554688 252.820312 191.722656 252.214844 189.757812 C 251.609375 187.792969 251.699219 185.695312 251.789062 183.644531 C 251.9375 180.410156 252.132812 177.011719 253.867188 174.28125 C 255.789062 171.261719 259.300781 169.585938 262.816406 168.90625 C 266.5 168.195312 270.359375 168.421875 273.9375 169.558594 C 274.378906 169.699219 274.835938 169.863281 275.171875 170.1875 C 275.386719 170.398438 275.539062 170.664062 275.691406 170.925781 C 277.320312 173.765625 278.949219 176.605469 280.578125 179.445312 C 281.453125 180.96875 282.355469 182.742188 281.78125 184.402344 C 280.679688 187.585938 279.515625 190.871094 277.199219 193.316406 C 275.296875 195.316406 272.753906 196.59375 270.152344 197.503906 C 268.421875 198.105469 266.53125 198.566406 264.769531 198.058594 Z M 264.769531 198.058594 " fill-opacity="1" fill-rule="nonzero"/><path fill="#662d91" d="M 335.585938 273.394531 C 333.925781 272.738281 332.652344 271.339844 331.011719 270.636719 C 329.355469 269.929688 327.382812 269.949219 325.949219 268.863281 C 324.515625 267.777344 324.007812 265.867188 323.804688 264.082031 C 323.488281 261.304688 323.695312 258.496094 323.933594 255.710938 C 324.023438 254.636719 324.121094 253.558594 324.410156 252.519531 C 325.554688 248.425781 329.570312 245.648438 333.726562 244.757812 C 337.882812 243.867188 342.195312 244.523438 346.386719 245.234375 C 346.988281 245.335938 347.742188 245.597656 347.765625 246.207031 C 347.960938 250.707031 353.164062 253.710938 353.554688 258.195312 C 353.726562 260.171875 352.917969 262.082031 352.128906 263.902344 C 351.363281 265.65625 350.574219 267.453125 349.273438 268.859375 C 347.800781 270.457031 345.78125 271.429688 343.785156 272.296875 C 341.1875 273.425781 338.21875 274.445312 335.585938 273.394531 Z M 335.585938 273.394531 " fill-opacity="1" fill-rule="nonzero"/><path fill="#662d91" d="M 151.257812 356.378906 C 151.296875 354.273438 151.335938 352.167969 151.375 350.058594 C 151.390625 349.191406 151.410156 348.320312 151.550781 347.464844 C 152.09375 344.238281 154.453125 341.503906 157.332031 339.957031 C 160.214844 338.410156 163.566406 337.929688 166.835938 337.980469 C 168.792969 338.007812 170.746094 338.214844 172.664062 338.597656 C 173.960938 338.859375 175.476562 339.441406 175.699219 340.742188 C 176.5 345.460938 182.050781 349.03125 181.050781 353.707031 C 179.539062 360.753906 173.515625 367.296875 166.3125 367.117188 C 162.863281 367.027344 159.640625 365.476562 156.542969 363.957031 C 154.578125 362.992188 152.445312 361.855469 151.644531 359.816406 C 151.222656 358.734375 151.238281 357.539062 151.257812 356.378906 Z M 151.257812 356.378906 " fill-opacity="1" fill-rule="nonzero"/><path fill="#662d91" d="M 376.378906 320.234375 C 378.945312 318.6875 381.910156 317.800781 384.90625 317.691406 C 388 317.574219 391.0625 318.265625 394.0625 319.035156 C 394.386719 319.117188 394.730469 319.214844 394.953125 319.464844 C 395.1875 319.734375 395.230469 320.117188 395.289062 320.46875 C 396.09375 325.246094 401.707031 328.8125 400.800781 333.570312 C 399.605469 339.847656 394.625 345.242188 388.464844 346.9375 C 386.445312 347.492188 384.203125 347.652344 382.328125 346.71875 C 381.101562 346.105469 380.128906 345.074219 378.925781 344.414062 C 376.515625 343.097656 373.089844 343.160156 371.75 340.761719 C 371.210938 339.792969 371.171875 338.632812 371.148438 337.523438 C 371.101562 335.535156 371.058594 333.542969 371.015625 331.554688 C 370.96875 329.382812 370.933594 327.136719 371.773438 325.132812 C 372.65625 323.03125 374.425781 321.410156 376.378906 320.234375 Z M 376.378906 320.234375 " fill-opacity="1" fill-rule="nonzero"/><path fill="#662d91" d="M 48.84375 387.230469 C 47.367188 387.164062 46.140625 385.957031 45.585938 384.582031 C 45.035156 383.210938 45.023438 381.691406 45.019531 380.210938 C 45.015625 378.804688 45.011719 377.398438 45.007812 375.992188 C 45 373.394531 45.019531 370.671875 46.246094 368.382812 C 47.371094 366.28125 49.390625 364.792969 51.539062 363.761719 C 56.601562 361.332031 62.710938 361.1875 67.886719 363.375 C 68.167969 363.492188 68.453125 363.621094 68.679688 363.828125 C 69.183594 364.28125 69.304688 365.007812 69.492188 365.660156 C 70.128906 367.90625 71.753906 369.707031 73.050781 371.644531 C 74.351562 373.582031 75.375 376 74.609375 378.207031 C 73.550781 381.261719 72.433594 384.414062 70.210938 386.757812 C 68.378906 388.683594 65.929688 389.914062 63.414062 390.78125 C 61.710938 391.371094 59.882812 391.8125 58.113281 391.460938 C 54.75 390.789062 52.273438 387.394531 48.84375 387.230469 Z M 48.84375 387.230469 " fill-opacity="1" fill-rule="nonzero"/><g clip-path="url(#93a72f6087)"><path fill="#662d91" d="M 509.183594 383.277344 C 508.125 386.472656 506.992188 389.789062 504.617188 392.179688 C 502.867188 393.941406 500.558594 395.058594 498.207031 395.863281 C 496.597656 396.414062 494.890625 396.835938 493.203125 396.617188 C 491.757812 396.429688 490.417969 395.785156 489.101562 395.148438 C 487.050781 394.15625 484.996094 393.160156 482.941406 392.164062 C 482.207031 391.808594 481.449219 391.4375 480.914062 390.824219 C 480.402344 390.238281 480.136719 389.480469 479.945312 388.726562 C 479.34375 386.367188 479.382812 383.898438 479.425781 381.460938 C 479.460938 379.351562 479.503906 377.195312 480.226562 375.214844 C 481.597656 371.457031 485.261719 368.902344 489.121094 367.855469 C 490.492188 367.480469 491.910156 367.269531 493.332031 367.183594 C 496.507812 366.996094 499.71875 367.460938 502.710938 368.535156 C 503.648438 368.871094 503.863281 370.058594 504.136719 371.019531 C 504.753906 373.214844 506.339844 374.976562 507.613281 376.867188 C 508.886719 378.757812 509.898438 381.113281 509.183594 383.277344 Z M 509.183594 383.277344 " fill-opacity="1" fill-rule="nonzero"/></g><path fill="#662d91" d="M 328.578125 64.972656 C 327.351562 63.601562 327.292969 61.578125 327.300781 59.738281 C 327.3125 57.59375 327.320312 55.445312 327.328125 53.296875 C 327.332031 52.566406 327.335938 51.835938 327.429688 51.113281 C 327.96875 46.914062 331.539062 43.566406 335.546875 42.210938 C 339.558594 40.855469 343.933594 41.160156 348.113281 41.847656 C 349.742188 42.117188 351.753906 42.875 351.785156 44.527344 C 351.84375 47.539062 355.03125 49.445312 356.335938 52.160156 C 357.308594 54.1875 357.164062 56.589844 356.554688 58.753906 C 354.757812 65.144531 348.78125 70.132812 342.171875 70.761719 C 341.390625 70.835938 340.597656 70.855469 339.839844 70.660156 C 337.984375 70.183594 336.671875 68.550781 334.960938 67.691406 C 332.867188 66.644531 330.140625 66.714844 328.578125 64.972656 Z M 328.578125 64.972656 " fill-opacity="1" fill-rule="nonzero"/><path fill="#662d91" d="M 221.316406 445.28125 C 219.191406 445.234375 218.324219 442.550781 218.121094 440.433594 C 218.007812 439.238281 217.914062 438.046875 217.847656 436.847656 C 217.632812 433.136719 217.699219 429.179688 219.679688 426.035156 C 221.558594 423.042969 224.953125 421.242188 228.425781 420.59375 C 231.898438 419.945312 235.476562 420.324219 238.964844 420.886719 C 240.347656 421.109375 242.015625 421.636719 242.253906 423.015625 C 242.6875 425.503906 244.398438 427.535156 245.789062 429.640625 C 247.179688 431.742188 248.320312 434.363281 247.453125 436.734375 C 246.371094 439.683594 245.234375 442.726562 243.0625 444.996094 C 241.214844 446.925781 238.742188 448.15625 236.199219 448.964844 C 234.460938 449.515625 232.605469 449.890625 230.824219 449.507812 C 227.398438 448.765625 224.820312 445.359375 221.316406 445.28125 Z M 221.316406 445.28125 " fill-opacity="1" fill-rule="nonzero"/><path fill="#662d91" d="M 102.851562 280.300781 C 103.5625 282.691406 102.964844 285.292969 101.941406 287.570312 C 99.605469 292.761719 94.558594 297.042969 88.867188 297.070312 C 85.101562 297.089844 81.582031 295.332031 78.230469 293.613281 C 76.738281 292.847656 75.15625 292 74.347656 290.523438 C 73.910156 289.730469 73.742188 288.820312 73.601562 287.925781 C 73.019531 284.195312 72.839844 280.296875 74.015625 276.707031 C 75.1875 273.113281 77.917969 269.863281 81.5625 268.878906 C 86.398438 267.578125 91.628906 267.507812 96.347656 269.175781 C 96.972656 269.394531 97.683594 269.773438 97.726562 270.429688 C 97.972656 274.171875 101.785156 276.707031 102.851562 280.300781 Z M 102.851562 280.300781 " fill-opacity="1" fill-rule="nonzero"/><path fill="#662d91" d="M 128.859375 211.59375 C 127.207031 210.28125 126.65625 208 126.652344 205.890625 C 126.652344 203.78125 127.089844 201.675781 126.949219 199.570312 C 126.625 194.664062 130.417969 190.152344 135.015625 188.410156 C 139.613281 186.664062 144.785156 187.21875 149.511719 188.566406 C 149.824219 188.65625 150.144531 188.75 150.398438 188.957031 C 150.882812 189.355469 150.988281 190.046875 151.136719 190.65625 C 151.703125 192.984375 153.34375 194.871094 154.6875 196.851562 C 156.027344 198.835938 157.144531 201.265625 156.476562 203.566406 C 155.167969 208.0625 152.628906 212.382812 148.644531 214.847656 C 144.664062 217.308594 139.101562 217.5 135.496094 214.507812 C 133.625 212.953125 130.761719 213.109375 128.859375 211.59375 Z M 128.859375 211.59375 " fill-opacity="1" fill-rule="nonzero"/><path fill="#662d91" d="M 92.660156 33.035156 C 92.664062 31.957031 92.667969 30.878906 92.671875 29.800781 C 92.683594 27.234375 92.714844 24.566406 93.835938 22.253906 C 95.074219 19.695312 97.523438 17.894531 100.144531 16.796875 C 102.203125 15.933594 104.417969 15.445312 106.648438 15.363281 C 109.683594 15.246094 112.699219 15.875 115.613281 16.722656 C 116.46875 16.972656 117.523438 17.640625 117.191406 18.460938 C 116.539062 20.0625 118.160156 21.570312 119.320312 22.847656 C 122.289062 26.113281 122.859375 31.171875 121.195312 35.261719 C 119.53125 39.347656 115.882812 42.445312 111.753906 44.003906 C 108.597656 45.195312 104.660156 45.40625 102.207031 43.09375 C 99.988281 41.003906 96.144531 41.332031 94.117188 39.050781 C 92.71875 37.46875 92.652344 35.148438 92.660156 33.035156 Z M 92.660156 33.035156 " fill-opacity="1" fill-rule="nonzero"/></g></g></g></svg>